<!-- Sutra eternal-knot mark, monochrome — inherits color via currentColor for use
     on any surface (favicons, embeds, print). The woven gaps stay readable. -->
<svg width="64" height="64" viewBox="0 0 64 64" fill="none" xmlns="http://www.w3.org/2000/svg" role="img" aria-label="Sutra">
  <path d="M20 13 H32 A7 7 0 0 1 39 20 V32 A7 7 0 0 1 32 39 H30 M22 39 H20 A7 7 0 0 1 13 32 V20 A7 7 0 0 1 20 13
           M33 26 H35 M43 26 H45 A7 7 0 0 1 52 33 V45 A7 7 0 0 1 45 52 H33 A7 7 0 0 1 26 45 V33 A7 7 0 0 1 33 26"
        stroke="currentColor" stroke-width="5" stroke-linecap="round" stroke-linejoin="round"/>
</svg>
