<!-- Sutra app-icon tile: eternal-knot mark on the washi-ink ground, framed in a
     rounded square. Use as the source for rasterized platform icons. -->
<svg width="256" height="256" viewBox="0 0 256 256" fill="none" xmlns="http://www.w3.org/2000/svg" role="img" aria-label="Sutra">
  <defs>
    <linearGradient id="tileBg" x1="0" y1="0" x2="0" y2="256" gradientUnits="userSpaceOnUse">
      <stop offset="0" stop-color="#161a17"/>
      <stop offset="1" stop-color="#0e110f"/>
    </linearGradient>
    <linearGradient id="tileKnot" x1="52" y1="52" x2="208" y2="208" gradientUnits="userSpaceOnUse">
      <stop offset="0" stop-color="#6ef0ad"/>
      <stop offset="1" stop-color="#1f8a63"/>
    </linearGradient>
  </defs>
  <rect x="8" y="8" width="240" height="240" rx="56" fill="url(#tileBg)" stroke="rgba(255,255,255,0.06)" stroke-width="1.5"/>
  <g transform="translate(28,28) scale(3.125)">
    <path d="M20 13 H32 A7 7 0 0 1 39 20 V32 A7 7 0 0 1 32 39 H30 M22 39 H20 A7 7 0 0 1 13 32 V20 A7 7 0 0 1 20 13
             M33 26 H35 M43 26 H45 A7 7 0 0 1 52 33 V45 A7 7 0 0 1 45 52 H33 A7 7 0 0 1 26 45 V33 A7 7 0 0 1 33 26"
          stroke="url(#tileKnot)" stroke-width="5" stroke-linecap="round" stroke-linejoin="round"/>
  </g>
</svg>
